<?xml version="1.0" encoding="UTF-8"?> <svg xmlns="http://www.w3.org/2000/svg" width="167" height="55" viewBox="0 0 167 55" fill="none"><g clip-path="url(#clip0_170_189)"><path d="M24.0677 55C33.8968 51.6865 39.8709 45.0042 43.2318 37.9243C47.036 30.8422 48.2092 22.8765 48.0835 16.2164V4.78914C38.2897 0.344604 28.7408 0 24.0457 0C19.3506 0 9.81042 0.344604 0.00783469 4.78914V16.2164C-0.109046 22.8765 1.06197 30.8422 4.8595 37.9243C8.2226 44.9932 14.1946 51.6887 24.0258 55H24.0677Z" fill="#B2292D"></path><path d="M40.1505 19.663H27.8069V7.28915H19.3985V19.663H7.05935V28.7105H19.3985V41.0843H27.8069V28.7105H40.1505V19.663Z" fill="white"></path><path d="M60.163 10.8968C60.1713 11.3748 60.3037 11.8428 60.5475 12.2554C60.9787 12.9072 61.7365 13.2339 62.8211 13.2353C63.2751 13.2397 63.7264 13.1651 64.1545 13.0151C64.928 12.7399 65.3147 12.2422 65.3147 11.5287C65.3147 10.9936 65.1502 10.6105 64.8213 10.3837C64.3407 10.1013 63.8143 9.90389 63.2656 9.80012L61.9565 9.49844C61.1031 9.30246 60.5008 9.08445 60.1475 8.84883C59.537 8.43631 59.2318 7.82194 59.2318 7.0057C59.2178 6.60059 59.2908 6.19716 59.446 5.8221C59.6012 5.44703 59.835 5.1089 60.1319 4.83007C60.7349 4.26193 61.5861 3.97787 62.6855 3.97787C63.6047 3.94977 64.5091 4.21197 65.268 4.72657C65.9747 5.22423 66.3288 6.01992 66.3303 7.11361H65.0658C65.0351 6.68043 64.8919 6.26247 64.6501 5.90027C64.259 5.38792 63.5923 5.13175 62.6499 5.13175C61.8899 5.13175 61.3431 5.29691 61.0098 5.62722C60.8522 5.77561 60.7268 5.95426 60.6412 6.15226C60.5556 6.35027 60.5116 6.56349 60.5119 6.77889C60.4993 6.99251 60.5478 7.20533 60.652 7.39276C60.7563 7.58019 60.9119 7.73458 61.1009 7.83809C61.6625 8.07906 62.249 8.2585 62.85 8.37319L64.199 8.68808C64.7388 8.79228 65.2515 9.00431 65.7058 9.31127C66.3177 9.77076 66.6237 10.4387 66.6237 11.3151C66.6237 12.403 66.2333 13.1818 65.4525 13.6515C64.6294 14.1323 63.6874 14.3764 62.7322 14.3562C61.5276 14.3562 60.5845 14.0435 59.903 13.4181C59.2214 12.7927 58.8881 11.9508 58.9029 10.8923L60.163 10.8968Z" fill="#010202"></path><path d="M69.4012 4.41776L71.2646 12.4937L73.502 4.41776H74.9493L77.189 12.5092L79.0546 4.41776H80.5218L77.9237 14.3575H76.5162L74.2345 6.11479L71.9396 14.3575H70.5321L67.9472 4.41776H69.4012Z" fill="#010202"></path><path d="M83.6102 4.41776H82.2866V14.3575H83.6102V4.41776Z" fill="#010202"></path><path d="M87.0772 10.8969C87.0855 11.375 87.2179 11.8429 87.4617 12.2556C87.8928 12.9133 88.6507 13.2421 89.7353 13.2421C90.1893 13.2464 90.6406 13.1719 91.0687 13.0219C91.8421 12.7466 92.2288 12.249 92.2288 11.5355C92.2288 11.0004 92.0644 10.6172 91.7355 10.3904C91.2549 10.1081 90.7285 9.91065 90.1797 9.80689L88.8707 9.4986C88.0173 9.30261 87.415 9.08461 87.0616 8.84899C86.4512 8.43647 86.146 7.82209 86.146 7.00586C86.1306 6.60157 86.2019 6.19863 86.3551 5.82362C86.5083 5.4486 86.74 5.11003 87.035 4.83022C87.638 4.26209 88.4892 3.97802 89.5886 3.97802C90.5077 3.94993 91.4121 4.21212 92.1711 4.72672C92.8778 5.22439 93.2319 6.02007 93.2334 7.11377H91.9799C91.9493 6.68059 91.8061 6.26262 91.5643 5.90043C91.1717 5.38808 90.505 5.13191 89.5641 5.13191C88.804 5.13191 88.2573 5.29706 87.924 5.62737C87.7664 5.77576 87.641 5.95441 87.5554 6.15242C87.4698 6.35043 87.4258 6.56364 87.4261 6.77905C87.4134 6.99267 87.462 7.20549 87.5662 7.39292C87.6704 7.58034 87.826 7.73473 88.0151 7.83824C88.5767 8.07922 89.1632 8.25866 89.7641 8.37335L91.1132 8.68824C91.6529 8.79243 92.1656 9.00447 92.62 9.31142C93.2319 9.77092 93.5379 10.4389 93.5379 11.3153C93.5379 12.4031 93.1475 13.1819 92.3666 13.6517C91.5436 14.1325 90.6016 14.3765 89.6464 14.3564C88.4418 14.3564 87.4987 14.0437 86.8172 13.4183C86.1356 12.7929 85.8023 11.951 85.8171 10.8925L87.0772 10.8969Z" fill="#010202"></path><path d="M96.3448 10.8815C96.352 11.3598 96.4844 11.828 96.7293 12.2402C97.159 12.8979 97.9154 13.2267 98.9985 13.2267C99.4525 13.2313 99.9039 13.1568 100.332 13.0065C101.105 12.7312 101.492 12.2336 101.492 11.5201C101.492 10.985 101.33 10.6018 101.001 10.375C100.52 10.0927 99.9939 9.89525 99.4452 9.79149L98.1361 9.4832C97.2849 9.28722 96.6826 9.06921 96.3293 8.83359C96.0285 8.63123 95.7858 8.35504 95.6249 8.032C95.4641 7.70896 95.3905 7.35011 95.4114 6.99047C95.3977 6.5852 95.471 6.18166 95.6266 5.80659C95.7822 5.43153 96.0164 5.09348 96.3137 4.81484C96.9182 4.25699 97.7687 3.97807 98.8651 3.97807C99.7843 3.94967 100.689 4.21189 101.448 4.72676C102.157 5.22443 102.511 6.0201 102.51 7.11379H101.248C101.215 6.68104 101.072 6.26361 100.832 5.90046C100.439 5.38812 99.7726 5.13194 98.8318 5.13194C98.0695 5.13194 97.5249 5.29709 97.1916 5.6274C97.0333 5.77536 96.9072 5.95388 96.8212 6.15196C96.7352 6.35003 96.6911 6.56346 96.6915 6.77908C96.6788 6.99297 96.7276 7.20605 96.8322 7.39355C96.9369 7.58105 97.0931 7.73526 97.2827 7.83827C97.8442 8.07961 98.4307 8.25905 99.0318 8.37336L100.381 8.68826C100.92 8.79328 101.433 9.00525 101.888 9.31144C102.5 9.77094 102.805 10.4389 102.803 11.3153C102.803 12.4031 102.414 13.1819 101.634 13.6517C100.811 14.1325 99.8692 14.3765 98.914 14.3563C97.7094 14.3563 96.7663 14.0437 96.0848 13.4183C95.4032 12.7929 95.0691 11.951 95.0825 10.8925L96.3448 10.8815Z" fill="#010202"></path><path d="M64.7095 19.2624C64.3296 19.1052 63.9207 19.0332 63.5108 19.0511H60.8812V22.4953H63.5108C64.0181 22.5184 64.5203 22.3842 64.9505 22.1106C65.3187 21.8527 65.5028 21.3991 65.5028 20.7499C65.5028 20.0206 65.2398 19.5247 64.7095 19.2624ZM59.5642 17.895H63.9469C64.7153 17.859 65.4674 18.1277 66.044 18.6443C66.5772 19.1423 66.8439 19.842 66.8439 20.7432C66.8561 21.484 66.6021 22.204 66.1295 22.7687C65.6532 23.3439 64.9264 23.6314 63.9491 23.6314H60.8812V27.8315H59.5664L59.5642 17.895Z" fill="#010202"></path><path d="M72.7823 23.9799L71.2618 19.585L69.6817 23.9777L72.7823 23.9799ZM70.5723 18.1126H72.0839L75.6684 28.0523H74.201L73.1712 25.0764H69.2883L68.2165 28.0523H66.8441L70.5723 18.1126Z" fill="#010202"></path><path d="M83.1691 18.1126V19.2981H79.8679V28.0523H78.5285V19.2981H75.2272V18.1126H83.1691Z" fill="#010202"></path><path d="M84.9341 18.1126H92.1145V19.3314H86.2404V22.3496H91.6695V23.4995H86.2404V26.8691H92.2142V28.0523H84.9341V18.1126Z" fill="#010202"></path><path d="M94.1996 18.1126H95.7636L100.653 26.144V18.1126H101.921V28.0523H100.429L95.4674 20.032V28.0523H94.1996V18.1126Z" fill="#010202"></path><path d="M111.407 18.1126V19.2981H108.107V28.0523H106.765V19.2981H103.465V18.1126H111.407Z" fill="#010202"></path><path d="M113.773 24.8228C113.779 25.3018 113.912 25.7709 114.157 26.1839C114.587 26.8358 115.345 27.1618 116.431 27.1618C116.885 27.1666 117.336 27.0921 117.764 26.9416C118.538 26.6641 118.924 26.1678 118.924 25.4527C118.924 24.9175 118.762 24.5364 118.433 24.3074C117.952 24.0259 117.426 23.8291 116.877 23.7259L115.573 23.4241C114.722 23.2259 114.119 23.0101 113.766 22.7634C113.465 22.5616 113.222 22.2858 113.061 21.963C112.9 21.6402 112.827 21.2815 112.848 20.9221C112.835 20.5165 112.909 20.1128 113.064 19.7374C113.22 19.362 113.454 19.0234 113.75 18.7438C114.35 18.177 115.202 17.8936 116.304 17.8936C117.222 17.8658 118.125 18.1272 118.884 18.6403C119.594 19.138 119.949 19.9346 119.949 21.03H118.675C118.644 20.5969 118.501 20.179 118.26 19.8164C117.867 19.3025 117.2 19.0455 116.26 19.0455C115.497 19.0455 114.953 19.2107 114.619 19.5411C114.461 19.6892 114.335 19.8678 114.249 20.0659C114.163 20.2639 114.119 20.4774 114.119 20.693C114.107 20.907 114.155 21.1201 114.26 21.3076C114.365 21.4952 114.521 21.6494 114.71 21.7524C115.272 21.9935 115.859 22.1729 116.46 22.2877L117.809 22.6026C118.348 22.7092 118.86 22.9211 119.315 23.2259C119.927 23.6855 120.233 24.3536 120.231 25.2302C120.231 26.3212 119.841 27.1009 119.062 27.5693C118.239 28.0495 117.297 28.2928 116.342 28.2719C115.137 28.2719 114.194 27.9591 113.513 27.3336C112.831 26.7081 112.497 25.866 112.51 24.8073L113.773 24.8228Z" fill="#010202"></path><path d="M59.8291 40.201V46.8979H63.9761V47.4901H59.1227V40.201H59.8291Z" fill="#010202"></path><path d="M67.8164 44.8113C67.79 44.8538 67.7558 44.8905 67.7158 44.9193C67.6757 44.948 67.6305 44.9682 67.5828 44.9787C67.4827 45.0104 67.3806 45.0346 67.2771 45.0512C67.0064 45.1009 66.727 45.1462 66.4388 45.1846C66.1724 45.2186 65.9094 45.2769 65.6529 45.3589C65.4371 45.4237 65.2374 45.5364 65.0678 45.6892C64.9892 45.7687 64.928 45.8648 64.8884 45.971C64.8488 46.0772 64.8318 46.191 64.8386 46.3046C64.8347 46.4615 64.8684 46.617 64.9368 46.7571C64.9991 46.8868 65.0869 47.0016 65.1944 47.0942C65.3046 47.1937 65.432 47.2705 65.5699 47.3205C65.7109 47.3682 65.8582 47.3926 66.0065 47.3929C66.2446 47.394 66.4813 47.355 66.7073 47.2775C66.9218 47.206 67.1206 47.0914 67.2924 46.9404C67.46 46.7919 67.5954 46.6084 67.6898 46.4019C67.7897 46.178 67.8397 45.9336 67.836 45.6869V44.8113H67.8164ZM64.6159 43.1891C64.716 42.9666 64.8656 42.772 65.0525 42.6212C65.2482 42.4688 65.4707 42.3574 65.7075 42.2931C65.9799 42.2207 66.2602 42.1857 66.5414 42.189C66.7729 42.1892 67.0039 42.2119 67.2313 42.2569C67.4529 42.2979 67.6639 42.3857 67.8513 42.5148C68.0416 42.6498 68.1957 42.8328 68.2989 43.0465C68.4243 43.3243 68.4835 43.6293 68.4713 43.9357V46.825C68.4631 46.8785 68.467 46.9333 68.4828 46.985C68.4985 47.0367 68.5257 47.0839 68.5622 47.1228C68.5987 47.1617 68.6434 47.1912 68.6928 47.209C68.7422 47.2269 68.7949 47.2325 68.8468 47.2255C68.9165 47.2264 68.9856 47.2125 69.0499 47.1847V47.7526C68.9756 47.7662 68.9101 47.7775 68.8534 47.7843C68.7807 47.7884 68.7078 47.7884 68.6351 47.7843C68.5022 47.7904 68.3696 47.7664 68.2465 47.7142C68.1533 47.674 68.0736 47.6063 68.0172 47.5196C67.9598 47.4299 67.9232 47.3277 67.9103 47.2209C67.892 47.0936 67.8832 46.965 67.8841 46.8363H67.8644C67.7583 47.0004 67.6416 47.1569 67.5151 47.3047C67.2784 47.5794 66.9659 47.7722 66.62 47.8567C66.4019 47.9103 66.1782 47.9353 65.9542 47.9314C65.7228 47.9334 65.4922 47.903 65.2686 47.8409C65.0656 47.7873 64.8754 47.691 64.7098 47.5581C64.5506 47.429 64.4228 47.2632 64.3364 47.0739C64.24 46.8507 64.193 46.6079 64.1989 46.3634C64.1806 46.0469 64.2668 45.7333 64.4434 45.4742C64.6122 45.2543 64.8345 45.0848 65.0874 44.9833C65.3785 44.8693 65.6821 44.7933 65.9913 44.757C66.3275 44.7118 66.668 44.6665 67.013 44.6258C67.1483 44.61 67.2662 44.5941 67.3688 44.5715C67.4606 44.556 67.5474 44.518 67.6221 44.4606C67.6938 44.4018 67.7482 44.3235 67.7793 44.2344C67.8207 44.1202 67.84 43.9988 67.836 43.8769C67.8437 43.6866 67.807 43.4973 67.7291 43.3248C67.6631 43.1843 67.5612 43.0653 67.4343 42.9809C67.3016 42.8933 67.153 42.8348 66.9977 42.809C66.8219 42.7764 66.6436 42.7605 66.465 42.7615C66.1106 42.7455 65.7609 42.8504 65.4695 43.0601C65.3342 43.177 65.227 43.325 65.1565 43.4923C65.086 43.6596 65.0542 43.8416 65.0634 44.024H64.4238C64.4352 43.7398 64.5005 43.4607 64.6159 43.2027" fill="#010202"></path><path d="M74.0426 44.3173C73.984 44.0576 73.8801 43.8106 73.7359 43.588C73.598 43.3758 73.4154 43.1973 73.2012 43.0654C72.963 42.9266 72.6915 42.8573 72.4168 42.8653C72.1371 42.852 71.8587 42.9115 71.6079 43.0379C71.3572 43.1644 71.1424 43.3537 70.9838 43.588C70.8342 43.8087 70.7272 44.0562 70.6683 44.3173C70.5398 44.8581 70.5398 45.4221 70.6683 45.9628C70.7267 46.2241 70.8338 46.4717 70.9838 46.6922C71.1427 46.9262 71.3575 47.1155 71.6081 47.2423C71.8588 47.3691 72.137 47.4292 72.4168 47.4171C72.6918 47.4254 72.9636 47.3553 73.2012 47.2147C73.4159 47.0835 73.5986 46.9049 73.7359 46.6922C73.8804 46.4697 73.9843 46.2226 74.0426 45.9628C74.1712 45.4221 74.1712 44.8581 74.0426 44.3173ZM70.5719 40.4215V43.4857H70.5916C70.6555 43.2996 70.7537 43.1276 70.8808 42.9787C71.008 42.8348 71.1558 42.7112 71.3191 42.6118C71.4841 42.5116 71.6627 42.4367 71.8493 42.3894C72.0365 42.3428 72.2285 42.3189 72.4212 42.3182C72.782 42.308 73.14 42.3842 73.4664 42.5406C73.7546 42.6877 74.0068 42.8981 74.2048 43.1566C74.4057 43.4218 74.5545 43.7238 74.643 44.046C74.8329 44.7536 74.8329 45.4998 74.643 46.2074C74.5549 46.5299 74.4061 46.8319 74.2048 47.0969C74.0085 47.3559 73.7557 47.5652 73.4664 47.7084C73.1397 47.8638 72.7819 47.9399 72.4212 47.9308C72.0188 47.9378 71.622 47.834 71.273 47.6306C70.9422 47.4358 70.6859 47.1333 70.5456 46.7722H70.5237V47.7862H69.9321V40.4215H70.5719Z" fill="#010202"></path><path d="M77.1633 42.949C76.9312 43.0788 76.7305 43.2594 76.5757 43.4776C76.4154 43.7024 76.2958 43.9545 76.2226 44.2219C76.0648 44.777 76.0648 45.3662 76.2226 45.9214C76.2958 46.1888 76.4154 46.4408 76.5757 46.6656C76.7304 46.8833 76.9312 47.0632 77.1633 47.192C77.4171 47.3253 77.6986 47.3949 77.9844 47.3949C78.2701 47.3949 78.5517 47.3253 78.8055 47.192C79.038 47.0638 79.2388 46.8839 79.3931 46.6656C79.5534 46.4408 79.6729 46.1888 79.7461 45.9214C79.9069 45.3666 79.9069 44.7766 79.7461 44.2219C79.6729 43.9545 79.5534 43.7024 79.3931 43.4776C79.2389 43.2587 79.0381 43.078 78.8055 42.949C78.5511 42.8176 78.2697 42.7492 77.9844 42.7492C77.699 42.7492 77.4177 42.8176 77.1633 42.949ZM79.0713 42.4203C79.3776 42.5677 79.6489 42.7806 79.8667 43.0443C80.0855 43.3123 80.2516 43.6204 80.356 43.9519C80.5765 44.6777 80.5765 45.4542 80.356 46.18C80.2516 46.5115 80.0855 46.8196 79.8667 47.0876C79.6486 47.3492 79.3772 47.5598 79.0713 47.7048C78.7279 47.8546 78.3581 47.9318 77.9844 47.9318C77.6106 47.9318 77.2408 47.8546 76.8974 47.7048C76.5918 47.5604 76.3211 47.3497 76.1042 47.0876C75.8838 46.8208 75.7175 46.5124 75.6149 46.18C75.3915 45.4546 75.3915 44.6773 75.6149 43.9519C75.7178 43.6196 75.884 43.3112 76.1042 43.0443C76.3208 42.7802 76.5915 42.5672 76.8974 42.4203C77.2401 42.2676 77.6102 42.1888 77.9844 42.1888C78.3585 42.1888 78.7287 42.2676 79.0713 42.4203Z" fill="#010202"></path><path d="M84.9207 46.2939C85.0349 46.5395 85.2096 46.7511 85.428 46.9084C85.6631 47.0683 85.9269 47.1799 86.2044 47.2369C86.5147 47.3038 86.8312 47.3368 87.1485 47.3352C87.3597 47.332 87.5699 47.3042 87.7749 47.2525C87.9975 47.1976 88.2103 47.1079 88.4057 46.9866C88.5986 46.8671 88.7647 46.7081 88.8932 46.5196C89.0275 46.3147 89.0961 46.0728 89.0895 45.8269C89.0943 45.6371 89.0461 45.4496 88.9505 45.2862C88.858 45.1344 88.7356 45.0036 88.591 44.9019C88.4406 44.7951 88.2766 44.7094 88.1035 44.6472C87.9324 44.5836 87.7579 44.5299 87.5808 44.4863L85.9486 44.0796C85.7365 44.0259 85.5286 43.9564 85.3266 43.8718C85.1324 43.7929 84.9532 43.6802 84.7972 43.5389C84.6436 43.3954 84.5199 43.2221 84.4333 43.0294C84.3363 42.7964 84.2896 42.545 84.2965 42.2921C84.3015 42.0769 84.3357 41.8633 84.398 41.6575C84.4735 41.4026 84.6047 41.1681 84.7818 40.9715C84.9995 40.7361 85.2641 40.5502 85.5582 40.4263C85.9587 40.2634 86.3885 40.1872 86.8198 40.2029C87.1705 40.2004 87.5197 40.2493 87.8565 40.3481C88.1697 40.4395 88.4625 40.5913 88.7189 40.795C88.9793 40.9975 89.1886 41.2596 89.3296 41.5598C89.4707 41.86 89.5396 42.1899 89.5306 42.5222H88.8314C88.8244 42.2629 88.7596 42.0085 88.6417 41.7782C88.5337 41.5717 88.3833 41.3911 88.2006 41.2486C88.0131 41.1028 87.8008 40.9929 87.5742 40.9246C87.333 40.8516 87.0826 40.8147 86.8309 40.8151C86.5978 40.8148 86.3655 40.841 86.1383 40.8933C85.9296 40.9409 85.7309 41.0256 85.5516 41.1436C85.3838 41.2578 85.2454 41.4111 85.1479 41.5905C85.0383 41.8056 84.9852 42.0457 84.9935 42.2876C84.9906 42.4413 85.0208 42.5938 85.0818 42.7345C85.1373 42.8591 85.2194 42.9698 85.3222 43.0585C85.4266 43.1525 85.5459 43.2281 85.6751 43.2819C85.8129 43.339 85.9553 43.3838 86.1008 43.416L87.8874 43.8629C88.1382 43.9289 88.3837 44.014 88.6219 44.1176C88.8405 44.211 89.0441 44.3367 89.2262 44.4908C89.4012 44.64 89.5419 44.826 89.6387 45.036C89.7423 45.2822 89.7927 45.5481 89.7865 45.8158C89.7844 45.9272 89.7756 46.0384 89.76 46.1487C89.7405 46.3027 89.6996 46.4531 89.6387 46.5956C89.565 46.7641 89.4717 46.9232 89.3608 47.0693C89.2249 47.2429 89.058 47.3892 88.8689 47.5005C88.6262 47.642 88.3648 47.7473 88.0925 47.8134C87.3304 47.9813 86.5405 47.9706 85.7832 47.7821C85.4414 47.6926 85.1205 47.5354 84.8391 47.3195C84.5768 47.1065 84.3706 46.8309 84.2392 46.5174C84.0908 46.1448 84.0289 45.7427 84.0583 45.3421H84.7575C84.7402 45.6703 84.7999 45.9981 84.9318 46.2984" fill="#010202"></path><path d="M94.4708 47.7852V46.8157H94.4482C94.2862 47.1629 94.02 47.4522 93.6857 47.6441C93.3479 47.8361 92.9644 47.9351 92.5749 47.9307C92.2759 47.9382 91.9782 47.8903 91.697 47.7897C91.4697 47.7065 91.2667 47.5688 91.1065 47.3889C90.9498 47.2039 90.837 46.9867 90.7761 46.753C90.702 46.4739 90.6662 46.1863 90.6698 45.8977V42.4094H91.3327V45.9089C91.3172 46.3045 91.4377 46.6936 91.6744 47.0127C91.8901 47.2635 92.2604 47.3889 92.7853 47.3889C93.0436 47.3968 93.299 47.3332 93.5228 47.2053C93.7261 47.0843 93.8988 46.9189 94.0274 46.7217C94.1658 46.5097 94.266 46.2756 94.3238 46.0298C94.3871 45.7688 94.419 45.5012 94.4188 45.2327V42.4094H95.0817V47.7829L94.4708 47.7852Z" fill="#010202"></path><path d="M96.185 47.4901H96.8468V42.2256H96.185V47.4901ZM96.185 41.232H96.8468V40.201H96.185V41.232Z" fill="#010202"></path><path d="M100.998 43.3576C100.927 43.2178 100.827 43.0957 100.704 42.9999C100.575 42.9039 100.429 42.8339 100.274 42.7939C100.108 42.7488 99.9364 42.7262 99.7644 42.7267C99.6199 42.7268 99.4759 42.742 99.3345 42.7722C99.1956 42.8015 99.0621 42.8527 98.9391 42.924C98.8227 42.9931 98.7235 43.088 98.6489 43.2015C98.5706 43.3319 98.5325 43.4828 98.5393 43.6351C98.5349 43.7627 98.5719 43.8882 98.6446 43.9927C98.7165 44.0912 98.8062 44.1751 98.909 44.2399C99.019 44.3089 99.1366 44.3649 99.2593 44.4068C99.3861 44.4502 99.5043 44.4849 99.6096 44.513L100.45 44.7038C100.633 44.7313 100.813 44.78 100.985 44.8491C101.155 44.9172 101.314 45.0107 101.456 45.1266C101.595 45.2468 101.708 45.3943 101.789 45.5601C101.88 45.7442 101.926 45.9483 101.92 46.1541C101.927 46.4081 101.861 46.6587 101.731 46.8761C101.607 47.0717 101.441 47.2369 101.245 47.3595C101.04 47.4879 100.815 47.5789 100.579 47.6283C100.34 47.6814 100.095 47.7083 99.8503 47.7085C99.3242 47.7327 98.8049 47.5802 98.3738 47.2749C97.9977 46.9866 97.7828 46.5205 97.729 45.8832H98.3609C98.3614 46.0701 98.4034 46.2545 98.4837 46.4229C98.564 46.5913 98.6807 46.7395 98.8252 46.8565C99.1304 47.0822 99.5022 47.1976 99.8804 47.1839C100.04 47.1828 100.199 47.1661 100.355 47.134C100.515 47.1008 100.669 47.043 100.811 46.9628C100.946 46.8858 101.063 46.7809 101.155 46.6549C101.248 46.5205 101.296 46.3593 101.29 46.1953C101.301 46.0525 101.268 45.9099 101.198 45.7856C101.133 45.6805 101.047 45.5909 100.944 45.5233C100.83 45.4486 100.708 45.3889 100.579 45.3455C100.441 45.3 100.304 45.2588 100.164 45.2241L99.3539 45.0442C99.1605 44.9937 98.9703 44.9315 98.7843 44.8577C98.621 44.7924 98.4676 44.7041 98.3287 44.5954C98.1997 44.4922 98.0954 44.3611 98.0235 44.2117C97.9455 44.036 97.908 43.8448 97.9139 43.6524C97.9074 43.4149 97.9678 43.1804 98.088 42.976C98.2025 42.7904 98.3585 42.6345 98.5436 42.5208C98.7379 42.4047 98.9489 42.3199 99.169 42.2693C99.3938 42.2161 99.6238 42.1892 99.8547 42.1891C100.1 42.1863 100.344 42.2206 100.579 42.291C100.795 42.3539 100.996 42.4601 101.17 42.6031C101.341 42.7458 101.479 42.9249 101.574 43.1278C101.68 43.3584 101.738 43.6086 101.744 43.8627H101.114C101.111 43.686 101.07 43.5121 100.994 43.3532" fill="#010202"></path><path d="M105.851 43.3541C105.78 43.2143 105.68 43.092 105.557 42.9962C105.428 42.8997 105.282 42.8297 105.127 42.79C104.961 42.7449 104.79 42.7222 104.618 42.7228C104.473 42.7228 104.329 42.7381 104.188 42.7683C104.049 42.798 103.916 42.8492 103.792 42.9202C103.677 42.9894 103.578 43.0844 103.504 43.1979C103.424 43.3278 103.385 43.4791 103.393 43.6319C103.389 43.7594 103.426 43.8848 103.498 43.9898C103.57 44.0884 103.659 44.1723 103.762 44.2372C103.872 44.3062 103.99 44.3623 104.113 44.4042C104.239 44.4476 104.358 44.4823 104.463 44.5105L105.303 44.7015C105.486 44.729 105.666 44.7778 105.838 44.8468C106.008 44.915 106.167 45.0086 106.309 45.1245C106.448 45.2453 106.562 45.3928 106.644 45.5585C106.734 45.7433 106.778 45.9472 106.773 46.1529C106.781 46.4073 106.716 46.6584 106.584 46.8754C106.46 47.0713 106.294 47.2366 106.098 47.3593C105.894 47.4873 105.669 47.5784 105.434 47.6283C105.194 47.6814 104.949 47.7083 104.704 47.7086C104.177 47.7324 103.658 47.5798 103.227 47.2746C102.851 46.9861 102.636 46.5196 102.582 45.8817H103.214C103.215 46.0688 103.257 46.2534 103.337 46.4219C103.417 46.5905 103.534 46.7388 103.678 46.8559C103.984 47.0818 104.355 47.1972 104.734 47.1835C104.893 47.1825 105.052 47.1657 105.209 47.1336C105.368 47.1007 105.522 47.0429 105.664 46.9622C105.799 46.8852 105.916 46.7802 106.008 46.6541C106.101 46.5196 106.149 46.3582 106.143 46.1942C106.148 46.0584 106.115 45.9241 106.049 45.8058C105.984 45.7005 105.896 45.6109 105.793 45.5433C105.679 45.4686 105.557 45.4088 105.428 45.3654C105.292 45.3198 105.153 45.2786 105.013 45.2439L104.203 45.0638C104.009 45.0133 103.819 44.951 103.633 44.8772C103.47 44.8118 103.317 44.7234 103.178 44.6147C103.049 44.5108 102.945 44.3797 102.872 44.2307C102.794 44.0549 102.757 43.8635 102.763 43.6709C102.756 43.4329 102.817 43.1979 102.939 42.994C103.052 42.8078 103.208 42.6516 103.393 42.5384C103.591 42.4145 103.808 42.3237 104.035 42.2693C104.26 42.2161 104.49 42.1892 104.721 42.1891C104.966 42.1862 105.21 42.2206 105.445 42.291C105.661 42.354 105.862 42.4603 106.036 42.6035C106.207 42.7462 106.345 42.9255 106.44 43.1285C106.546 43.3593 106.604 43.6097 106.61 43.864H105.969C105.967 43.6872 105.926 43.5132 105.849 43.3541" fill="#010202"></path><path d="M111.531 43.886C111.458 43.67 111.347 43.4685 111.205 43.2908C111.063 43.1191 110.888 42.9782 110.69 42.8765C110.478 42.7693 110.244 42.7154 110.007 42.7195C109.766 42.7147 109.528 42.7685 109.313 42.8765C109.115 42.9776 108.94 43.1186 108.798 43.2908C108.654 43.4708 108.54 43.6733 108.461 43.8904C108.378 44.1147 108.323 44.3482 108.296 44.5859H111.657C111.651 44.3475 111.608 44.1115 111.531 43.886ZM108.391 45.8483C108.452 46.0838 108.556 46.3057 108.699 46.5024C108.841 46.701 109.023 46.8673 109.233 46.9908C109.469 47.1234 109.736 47.1896 110.007 47.1827C110.4 47.2048 110.787 47.0745 111.088 46.8186C111.361 46.5548 111.55 46.2158 111.633 45.8439H112.267C112.17 46.3708 111.911 46.8537 111.527 47.2241C111.168 47.5497 110.66 47.7118 110.002 47.7103C109.637 47.719 109.274 47.6444 108.941 47.4923C108.652 47.3558 108.401 47.1499 108.21 46.8927C108.019 46.6304 107.877 46.3347 107.793 46.0206C107.7 45.6743 107.654 45.3172 107.656 44.9587C107.656 44.6161 107.702 44.2751 107.793 43.9449C107.878 43.6263 108.019 43.3257 108.21 43.0575C108.402 42.7932 108.652 42.5775 108.941 42.4274C109.27 42.2623 109.635 42.1807 110.002 42.1897C110.374 42.1794 110.741 42.2666 111.069 42.4426C111.354 42.6033 111.6 42.8269 111.789 43.0967C111.978 43.3838 112.112 43.704 112.184 44.0408C112.266 44.3944 112.3 44.7574 112.286 45.1201H108.296C108.297 45.3616 108.329 45.602 108.391 45.8352" fill="#010202"></path><path d="M118.908 44.3978H116.26V45.0604H118.908V44.3978Z" fill="#010202"></path><path d="M128.947 43.8887C128.875 43.6727 128.764 43.4718 128.62 43.2958C128.479 43.1231 128.305 42.9814 128.108 42.8795C127.895 42.7722 127.66 42.7183 127.422 42.7225C127.182 42.7179 126.944 42.7717 126.728 42.8795C126.531 42.9814 126.356 43.1231 126.216 43.2958C126.071 43.4747 125.957 43.6765 125.878 43.8931C125.795 44.1173 125.739 44.3508 125.712 44.5885H129.076C129.071 44.35 129.028 44.1138 128.949 43.8887M125.811 45.8507C125.872 46.0857 125.975 46.3074 126.116 46.5047C126.26 46.7015 126.441 46.8669 126.65 46.9908C126.886 47.1244 127.154 47.1908 127.424 47.1826C127.818 47.2045 128.204 47.0743 128.506 46.8186C128.778 46.5553 128.967 46.2161 129.048 45.8441H129.682C129.585 46.3709 129.326 46.8537 128.942 47.224C128.583 47.5496 128.079 47.7116 127.429 47.7102C127.063 47.7196 126.7 47.6451 126.367 47.4922C126.079 47.3554 125.829 47.1496 125.638 46.8927C125.446 46.631 125.304 46.3352 125.221 46.0207C125.129 45.6746 125.083 45.3175 125.085 44.9591C125.084 44.6166 125.13 44.2755 125.221 43.9454C125.306 43.6267 125.447 43.3261 125.638 43.0582C125.83 42.7952 126.08 42.5798 126.367 42.4282C126.696 42.2634 127.061 42.1818 127.429 42.1906C127.779 42.1762 128.128 42.253 128.441 42.4138C128.754 42.5745 129.02 42.8137 129.215 43.1083C129.406 43.3947 129.541 43.715 129.613 44.0522C129.694 44.4095 129.728 44.776 129.714 45.1422H125.712C125.713 45.3838 125.746 45.6241 125.809 45.8572" fill="#010202"></path><path d="M133.639 43.3403C133.569 43.199 133.469 43.0755 133.345 42.979C133.216 42.8826 133.07 42.8124 132.915 42.7722C132.749 42.7279 132.578 42.706 132.406 42.7069C132.261 42.707 132.117 42.7223 131.976 42.7526C131.837 42.7813 131.704 42.832 131.581 42.9028C131.467 42.9739 131.371 43.0698 131.299 43.1836C131.221 43.3145 131.183 43.466 131.189 43.6189C131.185 43.747 131.222 43.8731 131.295 43.978C131.367 44.0769 131.456 44.161 131.559 44.2261C131.669 44.2954 131.787 44.3516 131.909 44.3937C132.036 44.4372 132.154 44.4721 132.26 44.5003L133.1 44.6919C133.283 44.7202 133.463 44.7699 133.635 44.8399C133.805 44.9067 133.964 44.9999 134.106 45.1163C134.245 45.2374 134.358 45.3854 134.439 45.5516C134.531 45.7371 134.576 45.9427 134.57 46.1501C134.577 46.4044 134.512 46.6554 134.381 46.8727C134.256 47.0693 134.091 47.2358 133.895 47.3602C133.69 47.4875 133.465 47.578 133.229 47.6279C132.99 47.6812 132.745 47.7082 132.5 47.7085C131.974 47.7327 131.455 47.5796 131.024 47.2732C130.648 46.983 130.434 46.5172 130.379 45.8759H131.011C131.011 46.0635 131.053 46.2487 131.134 46.4178C131.214 46.5868 131.331 46.7356 131.475 46.8531C131.78 47.0797 132.152 47.1955 132.531 47.1818C132.69 47.1807 132.849 47.164 133.005 47.1317C133.165 47.0984 133.319 47.0404 133.461 46.9598C133.596 46.8825 133.713 46.7772 133.805 46.6507C133.898 46.5158 133.946 46.3539 133.94 46.1893C133.945 46.0528 133.912 45.9177 133.844 45.7997C133.779 45.6942 133.693 45.6043 133.59 45.5364C133.477 45.4612 133.354 45.4019 133.225 45.3601C133.089 45.3121 132.95 45.2715 132.81 45.2382L132 45.0553C131.806 45.0047 131.616 44.9422 131.43 44.8682C131.267 44.8025 131.113 44.7139 130.974 44.6048C130.845 44.5012 130.741 44.3695 130.669 44.2196C130.591 44.0432 130.554 43.8512 130.56 43.6581C130.553 43.4196 130.613 43.1841 130.734 42.979C130.848 42.7928 131.004 42.6368 131.189 42.5241C131.383 42.406 131.594 42.32 131.815 42.2695C132.04 42.2171 132.27 42.19 132.5 42.1889C132.745 42.1872 132.989 42.2217 133.225 42.2912C133.441 42.3544 133.642 42.461 133.816 42.6047C133.987 42.7478 134.125 42.9277 134.22 43.1314C134.326 43.3629 134.384 43.614 134.39 43.8692H133.76C133.757 43.6925 133.716 43.5185 133.639 43.3599" fill="#010202"></path><path d="M137.655 42.2168V42.7539H136.578V46.2911C136.571 46.4592 136.6 46.6268 136.664 46.7824C136.724 46.9025 136.87 46.968 137.106 46.9811C137.291 46.9819 137.476 46.9717 137.659 46.9506V47.4899C137.564 47.4899 137.467 47.4899 137.373 47.4899C137.278 47.4899 137.181 47.4899 137.086 47.4899C136.645 47.4899 136.353 47.4069 136.181 47.241C136.009 47.075 135.928 46.7693 135.934 46.3217V42.7627H135.012V42.2168H135.936V40.6425H136.585V42.2168H137.655Z" fill="#010202"></path><path d="M139.865 46.6063H138.983V47.7107H139.865V46.6063Z" fill="#010202"></path><path d="M142.58 41.78C142.778 41.7614 142.971 41.703 143.148 41.6077C143.315 41.512 143.454 41.3696 143.55 41.1959C143.674 40.9567 143.752 40.6934 143.779 40.4216H144.277V47.7107H143.661V42.2948H141.851V41.827C142.12 41.827 142.362 41.8046 142.58 41.78Z" fill="#010202"></path><path d="M150.007 44.6315C150.217 44.5365 150.406 44.3967 150.561 44.2212C150.714 44.0436 150.831 43.8352 150.903 43.609C150.982 43.3656 151.022 43.1102 151.02 42.8533C151.021 42.6042 150.987 42.3563 150.918 42.1178C150.854 41.8988 150.747 41.6962 150.602 41.5235C150.45 41.3482 150.262 41.2109 150.052 41.1221C149.799 41.0182 149.528 40.9687 149.256 40.9764C149.02 40.9734 148.786 41.0247 148.572 41.1266C148.368 41.224 148.185 41.3619 148.033 41.5325C147.881 41.7077 147.762 41.9117 147.685 42.1334C147.604 42.3643 147.564 42.608 147.566 42.8533C147.565 43.1084 147.603 43.3621 147.68 43.6045C147.752 43.8304 147.865 44.0399 148.014 44.2212C148.161 44.3956 148.342 44.5355 148.546 44.6315C148.773 44.736 149.019 44.788 149.267 44.784C149.521 44.7879 149.773 44.736 150.007 44.6315ZM148.204 47.0175C148.478 47.273 148.838 47.4074 149.206 47.392C149.566 47.4115 149.922 47.297 150.208 47.0691C150.463 46.8491 150.664 46.5703 150.797 46.2551C150.94 45.9184 151.036 45.5618 151.08 45.1966C151.124 44.8419 151.148 44.4847 151.149 44.127H151.124C150.952 44.4904 150.685 44.7965 150.354 45.0102C150.023 45.224 149.64 45.3368 149.249 45.3357C148.922 45.3397 148.597 45.278 148.293 45.154C148.016 45.0411 147.766 44.8683 147.559 44.6472C147.353 44.4264 147.193 44.1638 147.089 43.8758C146.977 43.5624 146.921 43.2302 146.925 42.8959C146.922 42.5584 146.981 42.2234 147.1 41.9092C147.211 41.6158 147.379 41.3493 147.594 41.1266C147.81 40.9038 148.067 40.7277 148.349 40.6086C148.655 40.4822 148.981 40.419 149.31 40.4225C149.689 40.4126 150.065 40.4812 150.418 40.6243C150.732 40.7652 150.999 40.9993 151.184 41.297C151.408 41.6651 151.56 42.0749 151.632 42.5035C151.737 43.0951 151.786 43.6959 151.777 44.2974C151.777 44.4432 151.777 44.6338 151.753 44.8715C151.733 45.1261 151.694 45.3788 151.636 45.6272C151.573 45.9053 151.488 46.1776 151.381 46.4412C151.272 46.7107 151.122 46.9605 150.937 47.1812C150.745 47.4072 150.51 47.5903 150.247 47.7194C149.938 47.866 149.6 47.9373 149.26 47.9279C148.723 47.9586 148.193 47.7945 147.76 47.4637C147.389 47.1543 147.168 46.6759 147.096 46.0286H147.73C147.769 46.4029 147.935 46.7508 148.197 47.0108" fill="#010202"></path><path d="M155.652 43.558C155.825 43.5089 155.987 43.4249 156.13 43.3111C156.269 43.1962 156.382 43.0504 156.461 42.8845C156.549 42.6917 156.592 42.4802 156.586 42.2671C156.591 42.0761 156.552 41.8868 156.472 41.7147C156.398 41.5579 156.289 41.4217 156.154 41.3174C156.012 41.2051 155.853 41.1206 155.682 41.0681C155.489 41.01 155.288 40.9813 155.087 40.9828C154.896 40.9825 154.707 41.0113 154.524 41.0681C154.351 41.1192 154.187 41.2004 154.04 41.3084C153.899 41.4118 153.783 41.5478 153.702 41.7058C153.615 41.8757 153.572 42.0659 153.577 42.2581C153.571 42.4747 153.615 42.6896 153.706 42.8845C153.789 43.0522 153.906 43.1987 154.05 43.3133C154.194 43.4264 154.358 43.5081 154.533 43.5535C154.714 43.6025 154.9 43.6236 155.087 43.6164C155.277 43.6236 155.468 43.6009 155.652 43.549M155.788 47.3097C155.995 47.2491 156.187 47.146 156.355 47.0066C156.519 46.8675 156.65 46.6908 156.738 46.4902C156.835 46.2598 156.883 46.01 156.879 45.7583C156.886 45.5289 156.84 45.3011 156.747 45.0932C156.653 44.8853 156.514 44.7032 156.34 44.5616C156.169 44.4234 155.974 44.3205 155.766 44.2585C155.546 44.1921 155.316 44.1625 155.087 44.171C154.854 44.1616 154.621 44.1896 154.397 44.254C154.189 44.3112 153.995 44.4129 153.828 44.5526C153.665 44.6902 153.533 44.8625 153.44 45.0578C153.34 45.2763 153.29 45.5162 153.295 45.7583C153.291 46.0063 153.339 46.2523 153.436 46.479C153.523 46.6799 153.654 46.8568 153.819 46.9954C153.987 47.1365 154.181 47.2418 154.388 47.3052C154.615 47.3758 154.85 47.4106 155.087 47.4085C155.324 47.4096 155.56 47.3764 155.788 47.3097ZM156.92 43.2684C156.708 43.5569 156.411 43.7645 156.074 43.8589V43.8791C156.491 43.9486 156.871 44.1737 157.14 44.5122C157.399 44.8674 157.53 45.3047 157.512 45.7493C157.52 46.0819 157.455 46.412 157.322 46.7147C157.2 46.978 157.021 47.2085 156.798 47.3883C156.569 47.5739 156.308 47.7126 156.028 47.7969C155.414 47.9765 154.764 47.9765 154.15 47.7969C153.869 47.713 153.606 47.5744 153.375 47.3883C153.153 47.2085 152.974 46.978 152.852 46.7147C152.719 46.412 152.654 46.0819 152.661 45.7493C152.662 45.3057 152.799 44.8738 153.053 44.5167C153.306 44.1728 153.677 43.9442 154.089 43.8791V43.8589C153.753 43.7612 153.455 43.5543 153.239 43.2684C153.035 42.9714 152.931 42.6134 152.943 42.2491C152.935 41.9652 152.999 41.6843 153.129 41.4341C153.25 41.2094 153.417 41.0148 153.618 40.8638C153.825 40.7119 154.056 40.5993 154.301 40.5315C154.809 40.3849 155.345 40.3849 155.853 40.5315C156.1 40.6006 156.333 40.713 156.543 40.8638C156.746 41.0134 156.914 41.2083 157.034 41.4341C157.165 41.6841 157.229 41.965 157.223 42.2491C157.232 42.6141 157.125 42.9722 156.92 43.2684Z" fill="#010202"></path><path d="M160.163 43.7411C159.952 43.8361 159.763 43.9766 159.609 44.1533C159.456 44.3305 159.34 44.5378 159.267 44.7627C159.187 45.0066 159.148 45.2626 159.15 45.52C159.149 45.7665 159.184 46.0119 159.252 46.2481C159.314 46.4699 159.423 46.6748 159.57 46.8485C159.72 47.0241 159.907 47.1613 160.117 47.2495C160.371 47.3522 160.641 47.4017 160.913 47.3952C161.151 47.399 161.387 47.3477 161.603 47.2451C162.014 47.0433 162.33 46.6817 162.484 46.2391C162.564 46.0085 162.605 45.7652 162.605 45.52C162.606 45.2648 162.567 45.0112 162.488 44.7694C162.416 44.5442 162.304 44.3352 162.157 44.1533C162.01 43.9777 161.828 43.837 161.623 43.7411C161.396 43.6375 161.15 43.5863 160.902 43.591C160.648 43.5864 160.396 43.6375 160.163 43.7411ZM161.965 41.3596C161.691 41.1035 161.331 40.9691 160.963 40.9854C160.609 40.9696 160.261 41.0803 159.977 41.2991C159.72 41.5187 159.517 41.7982 159.384 42.1146C159.24 42.4506 159.145 42.807 159.103 43.172C159.057 43.5263 159.033 43.8833 159.031 44.2407H159.051C159.223 43.8782 159.49 43.5728 159.821 43.359C160.152 43.1452 160.534 43.0316 160.924 43.0309C161.253 43.0259 161.579 43.0875 161.885 43.2124C162.16 43.3259 162.41 43.4985 162.616 43.719C162.823 43.9395 162.982 44.2028 163.083 44.4916C163.196 44.8046 163.253 45.1365 163.25 45.4707C163.252 45.808 163.192 46.1426 163.072 46.4564C162.961 46.7493 162.793 47.0154 162.579 47.2383C162.363 47.4596 162.106 47.6334 161.824 47.7492C161.518 47.8728 161.192 47.9344 160.864 47.9306C160.485 47.9406 160.108 47.8713 159.756 47.7267C159.444 47.589 159.177 47.3592 158.99 47.0658C158.767 46.702 158.615 46.2963 158.542 45.8717C158.436 45.2755 158.388 44.6699 158.397 44.0637C158.397 43.9158 158.397 43.7254 158.421 43.4902C158.441 43.235 158.48 42.9819 158.538 42.7329C158.602 42.4548 158.688 42.1827 158.796 41.9197C158.901 41.6498 159.047 41.3988 159.228 41.1758C159.421 40.9488 159.655 40.7644 159.918 40.6337C160.227 40.4872 160.565 40.4159 160.905 40.4253C161.442 40.3938 161.973 40.5596 162.404 40.8936C162.8 41.263 163.039 41.7803 163.068 42.3319H162.434C162.394 41.9588 162.229 41.6122 161.967 41.3528" fill="#010202"></path><path d="M167 35.1203H58.2403V35.5621H167V35.1203Z" fill="#1F1F1D"></path></g><defs><clipPath id="clip0_170_189"><rect width="167" height="55" fill="white"></rect></clipPath></defs></svg> 